# xmcd
#
# Track frame offsets: 
#        150
#        25282
#        50935
#        71425
#        101985
#        127792
#        157280
#        177600
#        203680
#        226365
#        250995
#        272297
#
# Disc length: 3905 seconds
#
# Revision: 2
# Processed by: cddbd v1.5.2PL0 Copyright (c) Steve Scherf et al.
# Submitted via: ExactAudioCopy v1.0b3
#
DISCID=ae0f3f0c
DTITLE=Men Of Vizion - Personal
DYEAR=1996
DGENRE=R&B
TTITLE0=That's Alright
TTITLE1=Instant Love
TTITLE2=House Keeper
TTITLE3=When You Need Someone
TTITLE4=Forgive Me
TTITLE5=Personal
TTITLE6=Joyride (Feat. Tasha Scott)
TTITLE7=You Told Me You Loved Me
TTITLE8=Do Thangz
TTITLE9=Show You The Way To Go
TTITLE10=It's Only A Dream
TTITLE11=Night And Day
EXTD=
EXTT0=
EXTT1=
EXTT2=
EXTT3=
EXTT4=
EXTT5=
EXTT6=
EXTT7=
EXTT8=
EXTT9=
EXTT10=
EXTT11=
PLAYORDER=
